<svg xmlns="http://www.w3.org/2000/svg" viewBox="0 0 72 72" fill="none" aria-hidden="true">
  <defs>
    
    <radialGradient id="eungjingseal-aura" cx="50%" cy="42%" r="58%">
      <stop stop-color="#c05040" stop-opacity=".55"/>
      <stop offset=".42" stop-color="#c05040" stop-opacity=".18"/>
      <stop offset="1" stop-color="#c05040" stop-opacity="0"/>
    </radialGradient>
    <linearGradient id="eungjingseal-gold" x1="14" y1="10" x2="58" y2="62" gradientUnits="userSpaceOnUse">
      <stop stop-color="#FFF8D6"/>
      <stop offset=".28" stop-color="#F0D878"/>
      <stop offset=".62" stop-color="#C9A227"/>
      <stop offset="1" stop-color="#7A5A18"/>
    </linearGradient>
    <linearGradient id="eungjingseal-disc" x1="18" y1="14" x2="54" y2="58" gradientUnits="userSpaceOnUse">
      <stop stop-color="#3A2E1A"/>
      <stop offset="1" stop-color="#14100A"/>
    </linearGradient>
    <linearGradient id="eungjingseal-ink" x1="22" y1="16" x2="52" y2="56" gradientUnits="userSpaceOnUse">
      <stop stop-color="#FFF6E0"/>
      <stop offset=".35" stop-color="#c05040"/>
      <stop offset=".75" stop-color="#E8D9A8"/>
      <stop offset="1" stop-color="#8A7038"/>
    </linearGradient>
    <linearGradient id="eungjingseal-shine" x1="20" y1="14" x2="40" y2="34" gradientUnits="userSpaceOnUse">
      <stop stop-color="#FFF6D0" stop-opacity=".9"/>
      <stop offset="1" stop-color="#c05040" stop-opacity="0"/>
    </linearGradient>
    <filter id="eungjingseal-depth" x="-30%" y="-30%" width="160%" height="160%">
      <feDropShadow dx="0" dy="1.2" stdDeviation="1.4" flood-color="#000" flood-opacity=".6"/>
    </filter>
  </defs>
  <circle cx="36" cy="36" r="34" fill="url(#eungjingseal-aura)"/>
  <circle cx="36" cy="36" r="28.2" fill="none" stroke="#0A0806" stroke-width="4.5" opacity=".85"/>
  <circle cx="36" cy="36" r="27.5" fill="url(#eungjingseal-disc)" stroke="url(#eungjingseal-gold)" stroke-width="2.4"/>
  <circle cx="36" cy="36" r="23.5" fill="none" stroke="#FFF4C8" stroke-width=".85" opacity=".32" stroke-dasharray="2.2 4.5"/>
  <g stroke="url(#eungjingseal-gold)" stroke-width="1.5" stroke-linecap="round" opacity=".8">
    <path d="M36 10.5v4.2"/><path d="M36 57.3v4.2"/><path d="M10.5 36h4.2"/><path d="M57.3 36h4.2"/>
  </g>
  <g filter="url(#eungjingseal-depth)" transform="translate(36 36) scale(0.7) translate(-36 -36)">
    
      <path d="M22 50h28v4H22z" fill="#1A140C" stroke="url(#eungjingseal-gold)" stroke-width="1.5"/>
      <path d="M26 50V34l10-16 10 16v16z" fill="#241018" stroke="url(#eungjingseal-gold)" stroke-width="1.8" stroke-linejoin="round"/>
      <path d="M30 48V36l6-10 6 10v12z" fill="url(#eungjingseal-ink)" stroke="#5A4214" stroke-width="1"/>
      <path d="M36 22v8" stroke="url(#eungjingseal-gold)" stroke-width="2" stroke-linecap="round"/>
      <circle cx="36" cy="18" r="2.5" fill="url(#eungjingseal-gold)"/>
  </g>
</svg>
