<svg xmlns="http://www.w3.org/2000/svg" viewBox="0 0 72 72" fill="none" aria-hidden="true">
  <defs>
    
    <radialGradient id="gunhimseal-aura" cx="50%" cy="42%" r="58%">
      <stop stop-color="#c9a227" stop-opacity=".55"/>
      <stop offset=".42" stop-color="#c9a227" stop-opacity=".18"/>
      <stop offset="1" stop-color="#c9a227" stop-opacity="0"/>
    </radialGradient>
    <linearGradient id="gunhimseal-gold" x1="14" y1="10" x2="58" y2="62" gradientUnits="userSpaceOnUse">
      <stop stop-color="#FFF8D6"/>
      <stop offset=".28" stop-color="#F0D878"/>
      <stop offset=".62" stop-color="#C9A227"/>
      <stop offset="1" stop-color="#7A5A18"/>
    </linearGradient>
    <linearGradient id="gunhimseal-disc" x1="18" y1="14" x2="54" y2="58" gradientUnits="userSpaceOnUse">
      <stop stop-color="#3A2E1A"/>
      <stop offset="1" stop-color="#14100A"/>
    </linearGradient>
    <linearGradient id="gunhimseal-ink" x1="22" y1="16" x2="52" y2="56" gradientUnits="userSpaceOnUse">
      <stop stop-color="#FFF6E0"/>
      <stop offset=".35" stop-color="#c9a227"/>
      <stop offset=".75" stop-color="#E8D9A8"/>
      <stop offset="1" stop-color="#8A7038"/>
    </linearGradient>
    <linearGradient id="gunhimseal-shine" x1="20" y1="14" x2="40" y2="34" gradientUnits="userSpaceOnUse">
      <stop stop-color="#FFF6D0" stop-opacity=".95"/>
      <stop offset="1" stop-color="#c9a227" stop-opacity="0"/>
    </linearGradient>
    <filter id="gunhimseal-depth" x="-30%" y="-30%" width="160%" height="160%">
      <feDropShadow dx="0" dy="1.2" stdDeviation="1.4" flood-color="#000" flood-opacity=".6"/>
    </filter>
  </defs>
  <circle cx="36" cy="36" r="34" fill="url(#gunhimseal-aura)"/>
  <circle cx="36" cy="36" r="28.2" fill="none" stroke="#0A0806" stroke-width="4.5" opacity=".85"/>
  <circle cx="36" cy="36" r="27.5" fill="url(#gunhimseal-disc)" stroke="url(#gunhimseal-gold)" stroke-width="2.4"/>
  <circle cx="36" cy="36" r="23.5" fill="none" stroke="#FFF4C8" stroke-width=".85" opacity=".32" stroke-dasharray="2.2 4.5"/>
  <g stroke="url(#gunhimseal-gold)" stroke-width="1.5" stroke-linecap="round" opacity=".8">
    <path d="M36 10.5v4.2"/><path d="M36 57.3v4.2"/><path d="M10.5 36h4.2"/><path d="M57.3 36h4.2"/>
  </g>
  <g filter="url(#gunhimseal-depth)" transform="translate(36 36) scale(0.68) translate(-36 -36)">
    
      <path d="M36 10 56 18v18c0 14-10 22-20 26-10-4-20-12-20-26V18z"
        fill="#18160E" stroke="url(#gunhimseal-gold)" stroke-width="2.1" stroke-linejoin="round"/>
      <path d="M36 16 48 22v14c0 10-7 16-12 19.5-5-3.5-12-9.5-12-19.5V22z"
        fill="url(#gunhimseal-ink)" stroke="#5A4214" stroke-width="1"/>
      <path d="M26 34h20M36 24v20" stroke="#3A2C10" stroke-width="3.6" stroke-linecap="round"/>
      <path d="M26 34h20M36 24v20" stroke="url(#gunhimseal-gold)" stroke-width="2" stroke-linecap="round"/>
      <circle cx="36" cy="34" r="3.6" fill="#1A140C" stroke="url(#gunhimseal-gold)" stroke-width="1.4"/>
      <circle cx="36" cy="34" r="1.4" fill="url(#gunhimseal-gold)"/>
      <ellipse cx="30" cy="22" rx="4" ry="2" fill="url(#gunhimseal-shine)" opacity=".55" transform="rotate(-20 30 22)"/>
  </g>
</svg>
