<svg xmlns="http://www.w3.org/2000/svg" viewBox="0 0 72 72" fill="none" aria-hidden="true">
  <defs>
    
    <radialGradient id="mussangs4-aura" cx="50%" cy="42%" r="58%">
      <stop stop-color="#d0b070" stop-opacity=".62"/>
      <stop offset=".4" stop-color="#d0b070" stop-opacity=".22"/>
      <stop offset="1" stop-color="#d0b070" stop-opacity="0"/>
    </radialGradient>
    <linearGradient id="mussangs4-gold" x1="14" y1="10" x2="58" y2="62" gradientUnits="userSpaceOnUse">
      <stop stop-color="#FFF8D6"/>
      <stop offset=".28" stop-color="#F0D878"/>
      <stop offset=".62" stop-color="#C9A227"/>
      <stop offset="1" stop-color="#7A5A18"/>
    </linearGradient>
    <linearGradient id="mussangs4-disc" x1="18" y1="14" x2="54" y2="58" gradientUnits="userSpaceOnUse">
      <stop stop-color="#3A2E1A"/>
      <stop offset="1" stop-color="#14100A"/>
    </linearGradient>
    <linearGradient id="mussangs4-ink" x1="22" y1="16" x2="52" y2="56" gradientUnits="userSpaceOnUse">
      <stop stop-color="#FFF8E8"/>
      <stop offset=".28" stop-color="#d0b070"/>
      <stop offset=".7" stop-color="#E8D9A8"/>
      <stop offset="1" stop-color="#8A7038"/>
    </linearGradient>
    <radialGradient id="mussangs4-core" cx="38%" cy="32%" r="70%">
      <stop stop-color="#FFF8D6"/>
      <stop offset=".45" stop-color="#d0b070"/>
      <stop offset="1" stop-color="#3A2810"/>
    </radialGradient>
    <radialGradient id="mussangs4-deep" cx="40%" cy="30%" r="75%">
      <stop stop-color="#2A2214"/>
      <stop offset=".55" stop-color="#14100A"/>
      <stop offset="1" stop-color="#060408"/>
    </radialGradient>
    <linearGradient id="mussangs4-shine" x1="20" y1="14" x2="40" y2="34" gradientUnits="userSpaceOnUse">
      <stop stop-color="#FFF6D0" stop-opacity=".95"/>
      <stop offset="1" stop-color="#d0b070" stop-opacity="0"/>
    </linearGradient>
    <filter id="mussangs4-depth" x="-30%" y="-30%" width="160%" height="160%">
      <feDropShadow dx="0" dy="1.4" stdDeviation="1.5" flood-color="#000" flood-opacity=".65"/>
    </filter>
  </defs>
  <circle cx="36" cy="36" r="20" fill="url(#mussangs4-aura)" opacity=".85"/>
  <circle cx="36" cy="36" r="17.5" fill="url(#mussangs4-deep)" stroke="url(#mussangs4-gold)" stroke-width="1.6" opacity=".92"/>
  <circle cx="36" cy="36" r="15.2" fill="none" stroke="#FFF8D6" stroke-width=".7" opacity=".22"/>
  <g filter="url(#mussangs4-depth)" transform="translate(36 36) scale(0.72) translate(-36 -36)">
    
      <path d="M16 14 34 36 20 60l8 2.5 10-20 10 20 8-2.5-14-24 18-22-8-2.5-14 17L28 12z"
        fill="url(#mussangs4-deep)" stroke="url(#mussangs4-gold)" stroke-width="1.8" stroke-linejoin="round"/>
      <path d="M22 18 34 34 24 52l5 1.2 7-14 7 14 5-1.2-9-17 11-15-5-1.2-9 11-8-12z"
        fill="url(#mussangs4-ink)" stroke="#5A4214" stroke-width=".95"/>
      <path d="M24 20 30 28M42 20 48 28" stroke="url(#mussangs4-shine)" stroke-width="1.3" stroke-linecap="round" opacity=".55"/>
      <circle cx="36" cy="36" r="6.2" fill="url(#mussangs4-deep)" stroke="url(#mussangs4-gold)" stroke-width="1.8"/>
      <circle cx="36" cy="36" r="4" fill="url(#mussangs4-ink)" stroke="#5A4214" stroke-width=".9"/>
      <circle cx="36" cy="36" r="2.2" fill="url(#mussangs4-core)"/>
      <circle cx="36" cy="36" r=".95" fill="#FFF8D6"/>
      <ellipse cx="27" cy="20" rx="2.6" ry="1.5" fill="url(#mussangs4-shine)" opacity=".7" transform="rotate(-38 27 20)"/>
  </g>
</svg>
