<svg xmlns="http://www.w3.org/2000/svg" viewBox="0 0 72 72" fill="none" aria-hidden="true">
  <defs>
    <radialGradient id="pltmagics2-aura" cx="50%" cy="42%" r="55%">
      <stop stop-color="#a3da58" stop-opacity=".55"/>
      <stop offset=".5" stop-color="#a3da58" stop-opacity=".16"/>
      <stop offset="1" stop-color="#a3da58" stop-opacity="0"/>
    </radialGradient>
    <linearGradient id="pltmagics2-face" x1="14" y1="8" x2="58" y2="64" gradientUnits="userSpaceOnUse">
      <stop stop-color="#3a5a28"/>
      <stop offset=".4" stop-color="#1a2e14"/>
      <stop offset="1" stop-color="#0a1408"/>
    </linearGradient>
    <linearGradient id="pltmagics2-gold" x1="14" y1="10" x2="58" y2="62" gradientUnits="userSpaceOnUse">
      <stop stop-color="#FFF8D6"/>
      <stop offset=".28" stop-color="#F0D878"/>
      <stop offset=".62" stop-color="#C9A227"/>
      <stop offset="1" stop-color="#7A5A18"/>
    </linearGradient>
    <linearGradient id="pltmagics2-shine" x1="18" y1="12" x2="42" y2="36" gradientUnits="userSpaceOnUse">
      <stop stop-color="#FFF6D0" stop-opacity=".85"/>
      <stop offset="1" stop-color="#a3da58" stop-opacity="0"/>
    </linearGradient>
    <radialGradient id="pltmagics2-gem" cx="38%" cy="32%" r="70%">
      <stop stop-color="#3a5a28" stop-opacity=".9"/>
      <stop offset=".55" stop-color="#061008"/>
      <stop offset="1" stop-color="#000" stop-opacity=".85"/>
    </radialGradient>
    <filter id="pltmagics2-depth" x="-25%" y="-25%" width="150%" height="150%">
      <feDropShadow dx="0" dy="1.6" stdDeviation="1.3" flood-color="#000" flood-opacity=".55"/>
    </filter>
  </defs>
  <circle cx="36" cy="36" r="28" fill="url(#pltmagics2-aura)"/>
  <g filter="url(#pltmagics2-depth)">
    <path d="M36 6 L64 22 L58 62 L14 62 L8 22 Z" fill="none" stroke="#0A0806" stroke-width="5.4" stroke-linejoin="round" opacity=".92"/>
    <path d="M36 6 L64 22 L58 62 L14 62 L8 22 Z" fill="url(#pltmagics2-face)" stroke="url(#pltmagics2-gold)" stroke-width="3" stroke-linejoin="round"/>
    <path d="M36 6 L64 22 L58 62 L14 62 L8 22 Z" fill="none" stroke="#FFF8D6" stroke-width="1.15" opacity=".32" transform="translate(0 .6)"/>
    <path d="M36 16 L56 28 L52 56 L20 56 L16 28 Z" fill="url(#pltmagics2-gem)" stroke="#c8f0a0" stroke-width="1" stroke-opacity=".55"/>
    <path d="M36 16 L56 28 L52 56 L20 56 L16 28 Z" fill="none" stroke="#FFF8D6" stroke-width=".7" opacity=".18" transform="translate(0 .4)"/>
    <ellipse cx="26" cy="19" rx="8" ry="3.4" fill="url(#pltmagics2-shine)" transform="rotate(-26 26 19)" opacity=".8"/>
  </g>
</svg>
