<svg xmlns="http://www.w3.org/2000/svg" viewBox="0 0 72 72" fill="none" aria-hidden="true">
  <defs>
    <radialGradient id="pltrares5-aura" cx="50%" cy="42%" r="55%">
      <stop stop-color="#4d97ff" stop-opacity=".55"/>
      <stop offset=".5" stop-color="#4d97ff" stop-opacity=".16"/>
      <stop offset="1" stop-color="#4d97ff" stop-opacity="0"/>
    </radialGradient>
    <linearGradient id="pltrares5-face" x1="14" y1="8" x2="58" y2="64" gradientUnits="userSpaceOnUse">
      <stop stop-color="#284868"/>
      <stop offset=".4" stop-color="#142838"/>
      <stop offset="1" stop-color="#081018"/>
    </linearGradient>
    <linearGradient id="pltrares5-gold" x1="14" y1="10" x2="58" y2="62" gradientUnits="userSpaceOnUse">
      <stop stop-color="#FFF8D6"/>
      <stop offset=".28" stop-color="#F0D878"/>
      <stop offset=".62" stop-color="#C9A227"/>
      <stop offset="1" stop-color="#7A5A18"/>
    </linearGradient>
    <linearGradient id="pltrares5-shine" x1="18" y1="12" x2="42" y2="36" gradientUnits="userSpaceOnUse">
      <stop stop-color="#FFF6D0" stop-opacity=".85"/>
      <stop offset="1" stop-color="#4d97ff" stop-opacity="0"/>
    </linearGradient>
    <radialGradient id="pltrares5-gem" cx="38%" cy="32%" r="70%">
      <stop stop-color="#284868" stop-opacity=".9"/>
      <stop offset=".55" stop-color="#060c14"/>
      <stop offset="1" stop-color="#000" stop-opacity=".85"/>
    </radialGradient>
    <filter id="pltrares5-depth" x="-25%" y="-25%" width="150%" height="150%">
      <feDropShadow dx="0" dy="1.6" stdDeviation="1.3" flood-color="#000" flood-opacity=".55"/>
    </filter>
  </defs>
  <circle cx="36" cy="36" r="28" fill="url(#pltrares5-aura)"/>
  <g filter="url(#pltrares5-depth)">
    <path d="M14 12 L58 12 L64 32 L54 52 L36 64 L18 52 L8 32 Z" fill="none" stroke="#0A0806" stroke-width="5.4" stroke-linejoin="round" opacity=".92"/>
    <path d="M14 12 L58 12 L64 32 L54 52 L36 64 L18 52 L8 32 Z" fill="url(#pltrares5-face)" stroke="url(#pltrares5-gold)" stroke-width="3" stroke-linejoin="round"/>
    <path d="M14 12 L58 12 L64 32 L54 52 L36 64 L18 52 L8 32 Z" fill="none" stroke="#FFF8D6" stroke-width="1.15" opacity=".32" transform="translate(0 .6)"/>
    <path d="M20 20 L52 20 L56 32 L48 48 L36 58 L24 48 L16 32 Z" fill="url(#pltrares5-gem)" stroke="#a8d0ff" stroke-width="1" stroke-opacity=".55"/>
    <path d="M20 20 L52 20 L56 32 L48 48 L36 58 L24 48 L16 32 Z" fill="none" stroke="#FFF8D6" stroke-width=".7" opacity=".18" transform="translate(0 .4)"/>
    <ellipse cx="26" cy="19" rx="8" ry="3.4" fill="url(#pltrares5-shine)" transform="rotate(-26 26 19)" opacity=".8"/>
  </g>
</svg>
