<?xml version="1.0" encoding="UTF-8"?>
<svg xmlns="http://www.w3.org/2000/svg" viewBox="0 0 128 128" width="128" height="128" fill="none" aria-hidden="true">
  <defs>
    <linearGradient id="bg_doom_oracle_wind_s3" x1="20" y1="16" x2="108" y2="112" gradientUnits="userSpaceOnUse">
      <stop stop-color="#142818"/><stop offset="1" stop-color="#081208"/>
    </linearGradient>
    <radialGradient id="gl_doom_oracle_wind_s3" cx="50%" cy="45%" r="45%">
      <stop stop-color="#58E088" stop-opacity=".40"/><stop offset="1" stop-color="#58E088" stop-opacity="0"/>
    </radialGradient>
    <linearGradient id="a1_doom_oracle_wind_s3" x1="28" y1="16" x2="100" y2="108" gradientUnits="userSpaceOnUse">
      <stop stop-color="#E0FFE8"/><stop offset=".45" stop-color="#58D878"/><stop offset="1" stop-color="#289858"/>
    </linearGradient>
    <linearGradient id="a2_doom_oracle_wind_s3" x1="36" y1="24" x2="96" y2="100" gradientUnits="userSpaceOnUse">
      <stop stop-color="#E0FFE8"/><stop offset="1" stop-color="#58D878"/>
    </linearGradient>
    <linearGradient id="fr_doom_oracle_wind_s3" x1="8" y1="6" x2="120" y2="122" gradientUnits="userSpaceOnUse">
      <stop stop-color="#B8FFC8"/><stop offset=".45" stop-color="#48C870"/><stop offset="1" stop-color="#287848"/>
    </linearGradient>
    <linearGradient id="fd_doom_oracle_wind_s3" x1="24" y1="24" x2="104" y2="104" gradientUnits="userSpaceOnUse">
      <stop stop-color="#287848"/><stop offset="1" stop-color="#48C870"/>
    </linearGradient>
  </defs>
  <rect width="128" height="128" rx="16" fill="url(#bg_doom_oracle_wind_s3)"/>
  <circle cx="64" cy="60" r="36" fill="url(#gl_doom_oracle_wind_s3)"/>
  <g transform="translate(32,30)">
      <path d="M10 50L28 18L36 24L22 50Z" fill="url(#a1_doom_oracle_wind_s3)"/>
      <path d="M28 44L46 12L54 18L40 46Z" fill="url(#a2_doom_oracle_wind_s3)" opacity=".9"/>
      <path d="M18 54H50" stroke="#58E088" stroke-width="2.6" stroke-linecap="round" opacity=".45"/>
      <circle cx="48" cy="16" r="2.2" fill="#fff" opacity=".55"/></g>
  <rect x="5" y="5" width="118" height="118" rx="14" fill="none" stroke="url(#fr_doom_oracle_wind_s3)" stroke-width="6"/>
  <rect x="10" y="10" width="108" height="108" rx="11" fill="none" stroke="url(#fd_doom_oracle_wind_s3)" stroke-width="2"/>
  <rect x="13" y="13" width="102" height="102" rx="9" fill="none" stroke="#050308" stroke-opacity=".55" stroke-width="1.5"/>
</svg>
